# xmcd
#
# Track frame offsets: 
#        150
#        20192
#        36745
#        57083
#        72754
#        95116
#        118280
#        137341
#        158185
#        176180
#        198871
#        224370
#        241156
#
# Disc length: 3538 seconds
#
# Revision: 1
# Processed by: cddbd v1.5.2PL0 Copyright (c) Steve Scherf et al.
# Submitted via: ExactAudioCopy v0.99pb5
#
DISCID=c40dd00d
DTITLE=Octolab - The Timeless Room
DYEAR=2007
DGENRE=Synthpop
TTITLE0=Hunting
TTITLE1=Hidden Camera
TTITLE2=Overcome Suspicion
TTITLE3=Mindcontrol
TTITLE4=Tv-Spell
TTITLE5=Clouds Of Clowns
TTITLE6=Made On Stage
TTITLE7=The Doll
TTITLE8=Tumbledown
TTITLE9=Timeless Room
TTITLE10=Hunting (Bariuz Remix)
TTITLE11=Tumbledown (Disco Digitale Remix)
TTITLE12=Tv-Spell (In(Perfektion) Remix)
EXTD=
EXTT0=
EXTT1=
EXTT2=
EXTT3=
EXTT4=
EXTT5=
EXTT6=
EXTT7=
EXTT8=
EXTT9=
EXTT10=
EXTT11=
EXTT12=
PLAYORDER=
